<svg width="531" height="231" viewBox="0 0 531 231" fill="none" xmlns="http://www.w3.org/2000/svg">
<g clip-path="url(#clip0_170_28)">
<rect width="531" height="231" fill="#F6F6F6"/>
<path d="M50.5 100.25V85H58.125V54.5H50.5V46.875L81 31.625L111.5 46.875V54.5H103.875V85H111.5V100.25H101.892L53.855 128.005L58.125 100.25H50.5ZM88.625 85V54.5H73.375V85H88.625ZM42.875 199.375L43.18 197.545L112.644 157.438L116.609 183.21L88.625 199.375H42.875ZM50.8813 147.296L106.239 115.5L110.204 141.196L46.1537 178.177L50.8813 147.296Z" fill="#206E63"/>
<path d="M131.128 196.064L121.689 175.124L124.089 175.109L132.92 194.823L131.6 194.831L140.229 175.005L142.479 174.991L133.318 196.05L131.128 196.064ZM160.666 195.875L160.526 174.875L162.746 174.861L162.886 195.861L160.666 195.875ZM184.718 195.721L184.579 174.721L186.799 174.707L186.925 193.786L198.685 193.711L198.698 195.631L184.718 195.721ZM217.383 195.511L217.244 174.512L219.464 174.498L219.59 193.577L231.35 193.502L231.363 195.422L217.383 195.511ZM246.689 195.324L256.149 174.263L258.339 174.248L268.078 195.187L265.738 195.202L256.788 175.548L257.688 175.543L248.999 195.309L246.689 195.324ZM250.431 189.689L251.079 187.885L263.289 187.807L263.961 189.603L250.431 189.689ZM318.614 195.043C317.014 195.053 315.532 194.802 314.169 194.291C312.825 193.76 311.65 193.017 310.644 192.064C309.658 191.11 308.88 189.985 308.311 188.689C307.763 187.392 307.483 185.974 307.473 184.434C307.463 182.894 307.724 181.472 308.255 180.169C308.806 178.865 309.579 177.73 310.572 176.764C311.566 175.797 312.731 175.05 314.068 174.521C315.424 173.973 316.902 173.693 318.502 173.683C320.102 173.673 321.564 173.913 322.887 174.405C324.23 174.896 325.375 175.649 326.322 176.663L324.952 178.082C324.066 177.207 323.092 176.584 322.029 176.21C320.967 175.837 319.825 175.655 318.605 175.662C317.305 175.671 316.107 175.898 315.01 176.345C313.933 176.772 312.987 177.388 312.172 178.194C311.377 178.979 310.753 179.903 310.3 180.966C309.867 182.008 309.655 183.16 309.663 184.42C309.671 185.66 309.899 186.808 310.346 187.866C310.813 188.923 311.449 189.849 312.255 190.643C313.08 191.418 314.034 192.022 315.117 192.455C316.219 192.868 317.411 193.07 318.691 193.062C319.891 193.054 321.019 192.867 322.077 192.5C323.155 192.134 324.141 191.517 325.035 190.651L326.306 192.323C325.312 193.21 324.146 193.887 322.809 194.356C321.472 194.804 320.074 195.033 318.614 195.043ZM324.174 192.067L324.123 184.327L326.253 184.314L326.306 192.323L324.174 192.067ZM349.508 183.055L360.608 182.983L360.62 184.873L349.521 184.944L349.508 183.055ZM349.812 192.743L362.442 192.662L362.455 194.582L347.605 194.677L347.466 173.677L361.866 173.585L361.878 175.505L349.699 175.583L349.812 192.743ZM388.464 194.595C386.904 194.605 385.402 194.365 383.959 193.874C382.536 193.363 381.431 192.71 380.646 191.915L381.505 190.2C382.249 190.915 383.243 191.519 384.487 192.011C385.75 192.482 387.071 192.714 388.451 192.705C389.771 192.697 390.84 192.53 391.658 192.205C392.496 191.859 393.103 191.405 393.479 190.843C393.875 190.28 394.071 189.659 394.067 188.979C394.061 188.159 393.817 187.501 393.334 187.004C392.87 186.507 392.258 186.121 391.496 185.846C390.734 185.55 389.892 185.296 388.971 185.082C388.049 184.868 387.128 184.643 386.206 184.409C385.285 184.155 384.432 183.821 383.65 183.406C382.887 182.991 382.263 182.445 381.779 181.768C381.314 181.071 381.078 180.162 381.071 179.042C381.064 178.002 381.327 177.051 381.862 176.187C382.416 175.303 383.261 174.598 384.398 174.071C385.534 173.523 386.992 173.244 388.772 173.233C389.952 173.225 391.123 173.388 392.286 173.72C393.448 174.033 394.451 174.476 395.294 175.051L394.556 176.826C393.652 176.232 392.689 175.798 391.668 175.524C390.666 175.251 389.695 175.117 388.755 175.123C387.495 175.131 386.456 175.308 385.638 175.653C384.821 175.998 384.214 176.462 383.817 177.045C383.441 177.607 383.255 178.248 383.26 178.968C383.266 179.788 383.5 180.447 383.963 180.944C384.447 181.441 385.069 181.827 385.831 182.102C386.613 182.377 387.464 182.621 388.386 182.835C389.307 183.049 390.219 183.284 391.121 183.538C392.042 183.792 392.885 184.127 393.647 184.542C394.43 184.937 395.054 185.473 395.518 186.15C396.003 186.827 396.248 187.715 396.256 188.815C396.263 189.835 395.989 190.787 395.435 191.67C394.88 192.534 394.025 193.239 392.869 193.787C391.732 194.314 390.264 194.584 388.464 194.595ZM418.032 182.615L429.132 182.544L429.144 184.434L418.045 184.505L418.032 182.615ZM418.336 192.304L430.966 192.223L430.979 194.143L416.129 194.238L415.99 173.238L430.39 173.146L430.402 175.066L418.223 175.144L418.336 192.304ZM451.197 194.013L451.058 173.014L453.278 172.999L453.404 192.079L465.164 192.004L465.177 193.924L451.197 194.013ZM483.862 193.804L483.723 172.804L485.943 172.79L486.069 191.87L497.829 191.794L497.842 193.714L483.862 193.804Z" fill="#206E63"/>
<path d="M169.65 139.8L171.45 142.5C167.4 147.1 163.35 150.5 159.3 152.7C155.25 154.9 150.9 156 146.25 156C140.5 156 135.375 153.475 130.875 148.425C126.425 143.375 124.2 137.65 124.2 131.25C124.2 123.2 127.225 116.1 133.275 109.95C139.375 103.75 146.45 100.65 154.5 100.65C157.7 100.65 161.7 101.45 166.5 103.05L165.6 113.55H163.05C163.05 111.7 162.425 110.25 161.175 109.2C159.925 108.15 158.5 107.5 156.9 107.25C155.35 106.95 153.4 106.8 151.05 106.8C145.25 106.8 140.2 108.5 135.9 111.9C131.6 115.3 129.45 119.95 129.45 125.85C129.45 130.15 130.25 133.975 131.85 137.325C133.45 140.675 135.45 143.25 137.85 145.05C142.6 148.55 147.15 150.3 151.5 150.3C154.2 150.3 157.2 149.425 160.5 147.675C163.8 145.925 166.85 143.3 169.65 139.8ZM185.272 155.55C180.872 155.55 177.197 153.9 174.247 150.6C171.297 147.3 169.822 143.45 169.822 139.05C169.822 133.45 171.922 128.625 176.122 124.575C180.372 120.525 184.847 118.5 189.547 118.5C194.247 118.5 198.022 120.175 200.872 123.525C203.772 126.825 205.222 130.65 205.222 135C205.222 140.45 203.197 145.25 199.147 149.4C195.147 153.5 190.522 155.55 185.272 155.55ZM175.072 135C175.072 139.65 176.472 143.525 179.272 146.625C182.122 149.675 185.297 151.2 188.797 151.2C192.347 151.2 195.122 149.875 197.122 147.225C199.122 144.575 200.122 141.85 200.122 139.05C200.122 134.8 198.797 131.1 196.147 127.95C193.547 124.75 190.372 123.15 186.622 123.15C182.872 123.15 179.997 124.425 177.997 126.975C176.047 129.475 175.072 132.15 175.072 135ZM204.646 152.4L205.396 144.3L207.496 144.45C207.496 146.15 208.596 147.775 210.796 149.325C212.996 150.875 215.371 151.65 217.921 151.65C223.171 151.65 225.796 150.05 225.796 146.85C225.796 145.25 225.121 143.825 223.771 142.575C222.421 141.325 220.796 140.3 218.896 139.5C216.996 138.65 215.096 137.8 213.196 136.95C211.296 136.05 209.671 134.9 208.321 133.5C206.971 132.05 206.296 130.4 206.296 128.55C206.296 122.05 211.096 118.8 220.696 118.8C222.846 118.8 225.196 119.4 227.746 120.6L227.296 128.1H225.496C225.496 126.7 224.671 125.35 223.021 124.05C221.421 122.75 219.671 122.1 217.771 122.1C215.871 122.1 214.246 122.475 212.896 123.225C211.596 123.975 210.946 125.1 210.946 126.6C210.946 128.05 211.621 129.25 212.971 130.2C214.321 131.15 215.946 131.925 217.846 132.525C219.746 133.125 221.646 133.8 223.546 134.55C225.446 135.3 227.071 136.525 228.421 138.225C229.771 139.925 230.446 142.05 230.446 144.6C230.446 147.15 229.621 149.275 227.971 150.975C225.021 154.025 220.746 155.55 215.146 155.55C210.796 155.55 207.296 154.5 204.646 152.4ZM252.022 149.85L252.622 151.65C248.872 154.25 244.772 155.55 240.322 155.55C238.722 155.55 237.347 154.975 236.197 153.825C235.047 152.675 234.472 151.15 234.472 149.25V122.7H230.122V119.55H231.772C233.422 119.55 234.947 118.55 236.347 116.55C237.797 114.55 238.522 112.7 238.522 111H240.472V119.55H250.672V122.7H243.322C241.422 122.7 240.472 123.6 240.472 125.4V146.85C240.472 150.15 241.672 151.8 244.072 151.8C246.772 151.8 249.422 151.15 252.022 149.85ZM282.98 154.5H272.18V148.5C269.68 151.2 267.605 153.05 265.955 154.05C264.305 155.05 262.055 155.55 259.205 155.55C256.405 155.55 254.205 154.9 252.605 153.6C251.055 152.25 250.28 150.375 250.28 147.975C250.28 145.575 251.305 143.25 253.355 141C255.455 138.7 257.88 136.975 260.63 135.825C263.43 134.625 265.88 133.725 267.98 133.125C270.08 132.475 271.48 132.15 272.18 132.15V130.5C272.18 125.8 270.23 123.45 266.33 123.45C263.63 123.45 261.105 124.025 258.755 125.175C256.455 126.325 254.73 127.8 253.58 129.6L252.08 128.25C255.43 121.75 261.23 118.5 269.48 118.5C271.58 118.5 273.305 119.075 274.655 120.225C276.055 121.325 276.98 122.625 277.43 124.125C277.93 125.625 278.18 127.3 278.18 129.15V149.4C278.18 150.05 278.23 150.55 278.33 150.9C278.43 151.25 278.73 151.6 279.23 151.95C279.78 152.25 280.58 152.4 281.63 152.4H282.98V154.5ZM272.18 144.3V135.15C268.28 135.9 264.655 137.4 261.305 139.65C257.955 141.9 256.28 144.35 256.28 147C256.28 148.05 256.78 148.975 257.78 149.775C258.83 150.525 260.105 150.9 261.605 150.9C263.155 150.9 264.98 150.225 267.08 148.875C269.18 147.475 270.88 145.95 272.18 144.3ZM305.313 102L318.213 101.25C325.013 101.25 329.338 102.9 331.188 106.2C331.938 107.55 332.313 109.2 332.313 111.15C332.313 116.95 329.913 121.55 325.113 124.95C330.213 125.9 333.513 127.9 335.013 130.95C335.713 132.45 336.063 134.25 336.063 136.35C336.063 141.4 333.938 145.7 329.688 149.25C325.488 152.75 320.513 154.5 314.763 154.5H295.263V152.25H297.813C299.313 152.25 300.263 151.975 300.663 151.425C301.063 150.875 301.263 150.05 301.263 148.95V107.55C301.263 106.35 301.038 105.5 300.588 105C300.188 104.5 299.263 104.25 297.813 104.25H295.263V102H305.313ZM313.413 105.3C311.413 105.3 309.563 105.45 307.863 105.75V125.4H317.013C319.763 125.4 322.088 124.4 323.988 122.4C325.938 120.35 326.913 118.15 326.913 115.8C326.913 112.4 325.563 109.8 322.863 108C320.163 106.2 317.013 105.3 313.413 105.3ZM314.763 128.55H307.863V149.85C310.913 150.75 313.763 151.2 316.413 151.2C320.413 151.2 323.663 150.225 326.163 148.275C328.663 146.275 329.913 143.6 329.913 140.25C329.913 135.8 328.313 132.7 325.113 130.95C322.263 129.35 318.813 128.55 314.763 128.55ZM350.321 155.55C345.921 155.55 342.246 153.9 339.296 150.6C336.346 147.3 334.871 143.45 334.871 139.05C334.871 133.45 336.971 128.625 341.171 124.575C345.421 120.525 349.896 118.5 354.596 118.5C359.296 118.5 363.071 120.175 365.921 123.525C368.821 126.825 370.271 130.65 370.271 135C370.271 140.45 368.246 145.25 364.196 149.4C360.196 153.5 355.571 155.55 350.321 155.55ZM340.121 135C340.121 139.65 341.521 143.525 344.321 146.625C347.171 149.675 350.346 151.2 353.846 151.2C357.396 151.2 360.171 149.875 362.171 147.225C364.171 144.575 365.171 141.85 365.171 139.05C365.171 134.8 363.846 131.1 361.196 127.95C358.596 124.75 355.421 123.15 351.671 123.15C347.921 123.15 345.046 124.425 343.046 126.975C341.096 129.475 340.121 132.15 340.121 135ZM407.646 154.5H394.746V152.4H395.046C395.596 152.4 396.046 152.125 396.396 151.575C396.796 151.025 396.996 150.35 396.996 149.55V130.5C396.996 128.25 396.446 126.55 395.346 125.4C394.296 124.2 392.796 123.6 390.846 123.6C388.046 123.6 385.571 125.1 383.421 128.1C381.271 131.1 380.196 133.35 380.196 134.85V149.1C380.196 149.9 380.221 150.475 380.271 150.825C380.371 151.175 380.671 151.525 381.171 151.875C381.671 152.225 382.446 152.4 383.496 152.4H384.846V154.5H369.696V152.4H370.896C372.246 152.4 373.096 152.175 373.446 151.725C373.846 151.275 374.046 150.55 374.046 149.55V127.05C374.046 126.1 373.721 125.425 373.071 125.025C372.471 124.575 371.346 124.35 369.696 124.35V122.25C370.696 122.25 372.196 121.9 374.196 121.2C376.246 120.45 377.796 119.75 378.846 119.1L380.196 118.8V128.4C381.346 125.25 383.121 122.825 385.521 121.125C387.921 119.375 390.846 118.5 394.296 118.5C396.096 118.5 397.621 118.9 398.871 119.7C400.121 120.5 401.021 121.525 401.571 122.775C402.521 124.925 402.996 127.05 402.996 129.15V149.4C402.996 150.1 403.046 150.625 403.146 150.975C403.396 151.925 404.446 152.4 406.296 152.4H407.646V154.5ZM414.541 102.3C415.691 102.3 416.566 102.675 417.166 103.425C417.816 104.175 418.141 105.15 418.141 106.35C418.141 107.5 417.666 108.475 416.716 109.275C415.766 110.025 414.716 110.4 413.566 110.4C412.466 110.4 411.591 110.025 410.941 109.275C410.341 108.525 410.041 107.6 410.041 106.5C410.041 105.35 410.516 104.375 411.466 103.575C412.416 102.725 413.441 102.3 414.541 102.3ZM422.791 154.5H407.641V152.4H408.841C410.191 152.4 411.041 152.175 411.391 151.725C411.791 151.275 411.991 150.55 411.991 149.55V127.05C411.991 126.1 411.666 125.425 411.016 125.025C410.416 124.575 409.291 124.35 407.641 124.35V122.25C408.641 122.25 410.141 121.9 412.141 121.2C414.191 120.45 415.741 119.75 416.791 119.1L418.141 118.8V149.1C418.141 149.9 418.166 150.475 418.216 150.825C418.316 151.175 418.616 151.525 419.116 151.875C419.616 152.225 420.391 152.4 421.441 152.4H422.791V154.5ZM443.958 149.85L444.558 151.65C440.808 154.25 436.708 155.55 432.258 155.55C430.658 155.55 429.283 154.975 428.133 153.825C426.983 152.675 426.408 151.15 426.408 149.25V122.7H422.058V119.55H423.708C425.358 119.55 426.883 118.55 428.283 116.55C429.733 114.55 430.458 112.7 430.458 111H432.408V119.55H442.608V122.7H435.258C433.358 122.7 432.408 123.6 432.408 125.4V146.85C432.408 150.15 433.608 151.8 436.008 151.8C438.708 151.8 441.358 151.15 443.958 149.85ZM474.916 154.5H464.116V148.5C461.616 151.2 459.541 153.05 457.891 154.05C456.241 155.05 453.991 155.55 451.141 155.55C448.341 155.55 446.141 154.9 444.541 153.6C442.991 152.25 442.216 150.375 442.216 147.975C442.216 145.575 443.241 143.25 445.291 141C447.391 138.7 449.816 136.975 452.566 135.825C455.366 134.625 457.816 133.725 459.916 133.125C462.016 132.475 463.416 132.15 464.116 132.15V130.5C464.116 125.8 462.166 123.45 458.266 123.45C455.566 123.45 453.041 124.025 450.691 125.175C448.391 126.325 446.666 127.8 445.516 129.6L444.016 128.25C447.366 121.75 453.166 118.5 461.416 118.5C463.516 118.5 465.241 119.075 466.591 120.225C467.991 121.325 468.916 122.625 469.366 124.125C469.866 125.625 470.116 127.3 470.116 129.15V149.4C470.116 150.05 470.166 150.55 470.266 150.9C470.366 151.25 470.666 151.6 471.166 151.95C471.716 152.25 472.516 152.4 473.566 152.4H474.916V154.5ZM464.116 144.3V135.15C460.216 135.9 456.591 137.4 453.241 139.65C449.891 141.9 448.216 144.35 448.216 147C448.216 148.05 448.716 148.975 449.716 149.775C450.766 150.525 452.041 150.9 453.541 150.9C455.091 150.9 456.916 150.225 459.016 148.875C461.116 147.475 462.816 145.95 464.116 144.3Z" fill="#206E63"/>
<path d="M139.08 62.5H142.98V83.5H139.08V62.5ZM128.22 83.5H124.32V62.5H128.22V83.5ZM139.38 74.5H127.89V71.17H139.38V74.5ZM166.738 83.8C165.098 83.8 163.588 83.53 162.208 82.99C160.828 82.45 159.628 81.7 158.608 80.74C157.588 79.76 156.798 78.62 156.238 77.32C155.678 76 155.398 74.56 155.398 73C155.398 71.44 155.678 70.01 156.238 68.71C156.798 67.39 157.588 66.25 158.608 65.29C159.628 64.31 160.828 63.55 162.208 63.01C163.588 62.47 165.088 62.2 166.708 62.2C168.348 62.2 169.848 62.47 171.208 63.01C172.588 63.55 173.788 64.31 174.808 65.29C175.828 66.25 176.618 67.39 177.178 68.71C177.738 70.01 178.018 71.44 178.018 73C178.018 74.56 177.738 76 177.178 77.32C176.618 78.64 175.828 79.78 174.808 80.74C173.788 81.7 172.588 82.45 171.208 82.99C169.848 83.53 168.358 83.8 166.738 83.8ZM166.708 80.38C167.768 80.38 168.748 80.2 169.648 79.84C170.548 79.48 171.328 78.97 171.988 78.31C172.648 77.63 173.158 76.85 173.518 75.97C173.898 75.07 174.088 74.08 174.088 73C174.088 71.92 173.898 70.94 173.518 70.06C173.158 69.16 172.648 68.38 171.988 67.72C171.328 67.04 170.548 66.52 169.648 66.16C168.748 65.8 167.768 65.62 166.708 65.62C165.648 65.62 164.668 65.8 163.768 66.16C162.888 66.52 162.108 67.04 161.428 67.72C160.768 68.38 160.248 69.16 159.868 70.06C159.508 70.94 159.328 71.92 159.328 73C159.328 74.06 159.508 75.04 159.868 75.94C160.248 76.84 160.768 77.63 161.428 78.31C162.088 78.97 162.868 79.48 163.768 79.84C164.668 80.2 165.648 80.38 166.708 80.38ZM196.953 83.8C195.313 83.8 193.743 83.57 192.243 83.11C190.743 82.63 189.553 82.02 188.673 81.28L190.023 78.25C190.863 78.91 191.903 79.46 193.143 79.9C194.383 80.34 195.653 80.56 196.953 80.56C198.053 80.56 198.943 80.44 199.623 80.2C200.303 79.96 200.803 79.64 201.123 79.24C201.443 78.82 201.603 78.35 201.603 77.83C201.603 77.19 201.373 76.68 200.913 76.3C200.453 75.9 199.853 75.59 199.113 75.37C198.393 75.13 197.583 74.91 196.683 74.71C195.803 74.51 194.913 74.28 194.013 74.02C193.133 73.74 192.323 73.39 191.583 72.97C190.863 72.53 190.273 71.95 189.813 71.23C189.353 70.51 189.123 69.59 189.123 68.47C189.123 67.33 189.423 66.29 190.023 65.35C190.643 64.39 191.573 63.63 192.813 63.07C194.073 62.49 195.663 62.2 197.583 62.2C198.843 62.2 200.093 62.36 201.333 62.68C202.573 63 203.653 63.46 204.573 64.06L203.343 67.09C202.403 66.53 201.433 66.12 200.433 65.86C199.433 65.58 198.473 65.44 197.553 65.44C196.473 65.44 195.593 65.57 194.913 65.83C194.253 66.09 193.763 66.43 193.443 66.85C193.143 67.27 192.993 67.75 192.993 68.29C192.993 68.93 193.213 69.45 193.653 69.85C194.113 70.23 194.703 70.53 195.423 70.75C196.163 70.97 196.983 71.19 197.883 71.41C198.783 71.61 199.673 71.84 200.553 72.1C201.453 72.36 202.263 72.7 202.983 73.12C203.723 73.54 204.313 74.11 204.753 74.83C205.213 75.55 205.443 76.46 205.443 77.56C205.443 78.68 205.133 79.72 204.513 80.68C203.913 81.62 202.983 82.38 201.723 82.96C200.463 83.52 198.873 83.8 196.953 83.8ZM221.861 83.5V65.8H214.901V62.5H232.721V65.8H225.761V83.5H221.861ZM247.539 71.23H257.979V74.44H247.539V71.23ZM247.839 80.23H259.689V83.5H243.939V62.5H259.269V65.77H247.839V80.23ZM272.328 83.5V62.5H280.968C282.828 62.5 284.418 62.8 285.738 63.4C287.078 64 288.108 64.86 288.828 65.98C289.548 67.1 289.908 68.43 289.908 69.97C289.908 71.51 289.548 72.84 288.828 73.96C288.108 75.06 287.078 75.91 285.738 76.51C284.418 77.09 282.828 77.38 280.968 77.38H274.488L276.228 75.61V83.5H272.328ZM286.068 83.5L280.758 75.88H284.928L290.268 83.5H286.068ZM276.228 76.03L274.488 74.17H280.788C282.508 74.17 283.798 73.8 284.658 73.06C285.538 72.32 285.978 71.29 285.978 69.97C285.978 68.63 285.538 67.6 284.658 66.88C283.798 66.16 282.508 65.8 280.788 65.8H274.488L276.228 63.88V76.03ZM302.562 83.5V62.5H306.462V83.5H302.562ZM317.463 83.5L326.913 62.5H330.753L340.233 83.5H336.153L328.023 64.57H329.583L321.483 83.5H317.463ZM321.813 78.64L322.863 75.58H334.203L335.253 78.64H321.813Z" fill="#206E63"/>
</g>
<defs>
<clipPath id="clip0_170_28">
<rect width="531" height="231" fill="white"/>
</clipPath>
</defs>
</svg>
